# xmcd
#
# Track frame offsets: 
#        150
#        24611
#        47554
#        62772
#        64674
#        83260
#        109334
#        126877
#        128558
#        153924
#
# Disc length: 2257 seconds
#
# Revision: 0
# Processed by: cddbd v1.5.2PL0 Copyright (c) Steve Scherf et al.
# Submitted via: ExactAudioCopy v0.99pb5
#
DISCID=7808cf0a
DTITLE=Ramsey Lewis  - Don't It Feel Good  
DYEAR=1900
DGENRE=
TTITLE0=01 - Don't It Feel Good
TTITLE1=02 - Juaacklyn
TTITLE2=03 - What's the Name of This Funk (Spider Man)
TTITLE3=04 - Interlude
TTITLE4=05 - Something About You
TTITLE5=06 - That's the Way of the World
TTITLE6=07 - Fish Bite
TTITLE7=08 - Interlude
TTITLE8=09 - I Dig You
TTITLE9=10 - Can't Function
EXTD=
EXTT0=
EXTT1=
EXTT2=
EXTT3=
EXTT4=
EXTT5=
EXTT6=
EXTT7=
EXTT8=
EXTT9=
PLAYORDER=
